<?xml version="1.0" encoding="utf-8"?>
<!-- Generator: Adobe Illustrator 24.2.0, SVG Export Plug-In . SVG Version: 6.00 Build 0)  -->
<svg version="1.1" id="Capa_1" xmlns="http://www.w3.org/2000/svg" xmlns:xlink="http://www.w3.org/1999/xlink" x="0px" y="0px"
	 viewBox="0 0 512 512" style="enable-background:new 0 0 512 512;" xml:space="preserve">
<g>
	<polygon points="287.9,325.6 287.9,203.1 241.6,203.1 241.6,228.8 258.8,228.8 258.8,325.6 	"/>
	<path d="M464.1,278.4c-12.8,0-23.2,10.5-23.2,23.5c0,38.8-31.2,70.4-69.5,70.4H186v-70.4c0-9-5.1-17.2-13.1-21.1
		c-8.1-3.9-17.6-2.8-24.5,2.8L32.4,377.4c-5.5,4.5-8.7,11.2-8.7,18.3c0,7.1,3.2,13.9,8.7,18.3l115.9,93.8c4.2,3.4,9.3,5.1,14.5,5.1
		c3.4,0,6.9-0.8,10.1-2.3c8-3.9,13.1-12.1,13.1-21.1v-70.4h185.4c63.9,0,115.9-52.6,115.9-117.3C487.3,289,476.9,278.4,464.1,278.4z
		"/>
	<path d="M46.8,234.5c12.8,0,23.2-10.5,23.2-23.5c0-38.8,31.2-70.4,69.5-70.4h185.4v70.4c0,9,5.1,17.2,13.1,21.1
		c3.2,1.5,6.7,2.3,10.1,2.3c5.2,0,10.3-1.8,14.5-5.1l115.9-93.8c5.5-4.5,8.7-11.2,8.7-18.3c0-7.1-3.2-13.9-8.7-18.3L362.6,5.1
		c-7-5.6-16.6-6.7-24.5-2.8c-8,3.9-13.1,12.1-13.1,21.1v70.4H139.5c-63.9,0-115.9,52.6-115.9,117.3C23.6,224,33.9,234.5,46.8,234.5z
		"/>
</g>
</svg>
