<svg height="512" viewBox="0 0 192 192" width="512" xmlns="http://www.w3.org/2000/svg"><path d="m65.689 69.268 8.894 17.788 8.945-17.889-3.528-7.056a39.782 39.782 0 0 0 -35.777-22.111h-44.223v16h44.223a23.868 23.868 0 0 1 21.466 13.268z"/><path d="m165.657 114.343-11.314 11.314 10.343 10.343h-32.909a23.868 23.868 0 0 1 -21.466-13.268l-8.894-17.788-8.945 17.889 3.528 7.056a39.782 39.782 0 0 0 35.777 22.111h32.909l-10.343 10.343 11.314 11.314 24-24a8 8 0 0 0 0-11.314z"/><path d="m189.657 42.343-24-24-11.314 11.314 10.343 10.343h-32.909a39.782 39.782 0 0 0 -35.777 22.111l-30.311 60.621a23.868 23.868 0 0 1 -21.466 13.268h-44.223v16h44.223a39.782 39.782 0 0 0 35.777-22.111l30.311-60.621a23.868 23.868 0 0 1 21.466-13.268h32.909l-10.343 10.343 11.314 11.314 24-24a8 8 0 0 0 0-11.314z"/></svg>